<svg width="1440" height="940" viewBox="0 0 1440 940" fill="none" xmlns="http://www.w3.org/2000/svg">
  <rect width="1440" height="940" fill="#101820"/>
  <rect x="40" y="40" width="1360" height="860" rx="18" fill="#17212B" stroke="#E8C477" stroke-opacity=".22" stroke-width="2"/>
  <text x="80" y="102" fill="#F5EAD7" font-family="Arial, sans-serif" font-size="34" font-weight="800">목양실 10:12 앱 흐름도</text>
  <text x="80" y="136" fill="#BDB09A" font-family="Arial, sans-serif" font-size="17">밝은 레크레이션 화면에서 시작해 관리자 신호로 25대 휴대폰이 크라임씬 화면으로 전환되는 구조</text>

  <defs>
    <marker id="arrow" markerWidth="12" markerHeight="12" refX="9" refY="3" orient="auto" markerUnits="strokeWidth">
      <path d="M0,0 L0,6 L9,3 z" fill="#69C6BD"/>
    </marker>
    <filter id="shadow" x="-20%" y="-20%" width="140%" height="140%">
      <feDropShadow dx="0" dy="12" stdDeviation="12" flood-color="#000000" flood-opacity=".28"/>
    </filter>
  </defs>

  <g filter="url(#shadow)">
    <rect x="80" y="210" width="260" height="128" rx="10" fill="#F8FAFC"/>
    <text x="110" y="256" fill="#17324A" font-family="Arial, sans-serif" font-size="24" font-weight="800">참가자 접속</text>
    <text x="110" y="290" fill="#58728A" font-family="Arial, sans-serif" font-size="16">player.html</text>
    <text x="110" y="316" fill="#58728A" font-family="Arial, sans-serif" font-size="16">팀별 휴대폰 25대</text>
  </g>

  <g filter="url(#shadow)">
    <rect x="420" y="210" width="300" height="128" rx="10" fill="#FFF1C7"/>
    <text x="452" y="256" fill="#7A3D10" font-family="Arial, sans-serif" font-size="24" font-weight="800">레크레이션 대기</text>
    <text x="452" y="290" fill="#7A3D10" font-family="Arial, sans-serif" font-size="16">밝은 화면</text>
    <text x="452" y="316" fill="#7A3D10" font-family="Arial, sans-serif" font-size="16">진행자 신호 대기</text>
  </g>

  <g filter="url(#shadow)">
    <rect x="80" y="470" width="260" height="128" rx="10" fill="#0B1110" stroke="#E8C477" stroke-opacity=".36"/>
    <text x="110" y="516" fill="#F5EAD7" font-family="Arial, sans-serif" font-size="24" font-weight="800">관리자 콘솔</text>
    <text x="110" y="550" fill="#BDB09A" font-family="Arial, sans-serif" font-size="16">index.html</text>
    <text x="110" y="576" fill="#BDB09A" font-family="Arial, sans-serif" font-size="16">전환 버튼 / 힌트 관리</text>
  </g>

  <g filter="url(#shadow)">
    <rect x="420" y="470" width="300" height="128" rx="10" fill="#2B1A16" stroke="#DF735F" stroke-opacity=".48"/>
    <text x="452" y="516" fill="#F5EAD7" font-family="Arial, sans-serif" font-size="24" font-weight="800">모드 전환</text>
    <text x="452" y="550" fill="#E8C477" font-family="Arial, sans-serif" font-size="16">crime / recreation</text>
    <text x="452" y="576" fill="#BDB09A" font-family="Arial, sans-serif" font-size="16">버튼 클릭 1회</text>
  </g>

  <g filter="url(#shadow)">
    <rect x="800" y="340" width="300" height="128" rx="10" fill="#102A2A" stroke="#69C6BD" stroke-opacity=".56"/>
    <text x="832" y="386" fill="#F5EAD7" font-family="Arial, sans-serif" font-size="24" font-weight="800">공유 상태 API</text>
    <text x="832" y="420" fill="#69C6BD" font-family="Arial, sans-serif" font-size="16">/api/mode</text>
    <text x="832" y="446" fill="#BDB09A" font-family="Arial, sans-serif" font-size="16">Upstash Redis 권장</text>
  </g>

  <g filter="url(#shadow)">
    <rect x="1180" y="210" width="180" height="128" rx="10" fill="#0B1110" stroke="#E8C477" stroke-opacity=".36"/>
    <text x="1210" y="256" fill="#F5EAD7" font-family="Arial, sans-serif" font-size="23" font-weight="800">크라임씬</text>
    <text x="1210" y="290" fill="#BDB09A" font-family="Arial, sans-serif" font-size="16">힌트코드 입력</text>
    <text x="1210" y="316" fill="#BDB09A" font-family="Arial, sans-serif" font-size="16">증거 해제</text>
  </g>

  <g filter="url(#shadow)">
    <rect x="1180" y="520" width="180" height="128" rx="10" fill="#211911" stroke="#A0BF70" stroke-opacity=".56"/>
    <text x="1210" y="566" fill="#F5EAD7" font-family="Arial, sans-serif" font-size="23" font-weight="800">최종 추리</text>
    <text x="1210" y="600" fill="#BDB09A" font-family="Arial, sans-serif" font-size="16">12개 힌트 완료</text>
    <text x="1210" y="626" fill="#BDB09A" font-family="Arial, sans-serif" font-size="16">범인과 수단 추리</text>
  </g>

  <path d="M340 274 H420" stroke="#69C6BD" stroke-width="4" marker-end="url(#arrow)"/>
  <path d="M340 534 H420" stroke="#69C6BD" stroke-width="4" marker-end="url(#arrow)"/>
  <path d="M720 534 C760 534 760 404 800 404" stroke="#69C6BD" stroke-width="4" marker-end="url(#arrow)"/>
  <path d="M720 274 C760 274 760 404 800 404" stroke="#69C6BD" stroke-width="4" marker-end="url(#arrow)"/>
  <path d="M1100 404 C1140 404 1140 274 1180 274" stroke="#69C6BD" stroke-width="4" marker-end="url(#arrow)"/>
  <path d="M1270 338 V520" stroke="#69C6BD" stroke-width="4" marker-end="url(#arrow)"/>
  <path d="M1180 584 C1118 584 1108 694 950 694 C770 694 730 600 720 546" stroke="#DF735F" stroke-width="3" stroke-dasharray="10 10"/>

  <rect x="80" y="730" width="1280" height="110" rx="10" fill="#0F1720" stroke="#E8C477" stroke-opacity=".2"/>
  <text x="112" y="775" fill="#E8C477" font-family="Arial, sans-serif" font-size="20" font-weight="800">운영 안정성</text>
  <text x="112" y="812" fill="#F5EAD7" font-family="Arial, sans-serif" font-size="17">25대 휴대폰 × 0.85~1.35초 랜덤 폴링 = 요청 분산. Vercel에서는 Redis 저장소가 있어야 모든 인스턴스가 같은 모드를 공유합니다.</text>
</svg>
